<?xml version="1.0" encoding="utf-8" standalone="no"?>
<!DOCTYPE svg PUBLIC "-//W3C//DTD SVG 1.1//EN"
  "http://www.w3.org/Graphics/SVG/1.1/DTD/svg11.dtd">
<!-- Created with matplotlib (https://matplotlib.org/) -->
<svg height="384.710938pt" version="1.1" viewBox="0 0 821.423437 384.710938" width="821.423437pt" xmlns="http://www.w3.org/2000/svg" xmlns:xlink="http://www.w3.org/1999/xlink">
 <metadata>
  <rdf:RDF xmlns:cc="http://creativecommons.org/ns#" xmlns:dc="http://purl.org/dc/elements/1.1/" xmlns:rdf="http://www.w3.org/1999/02/22-rdf-syntax-ns#">
   <cc:Work>
    <dc:type rdf:resource="http://purl.org/dc/dcmitype/StillImage"/>
    <dc:date>2021-01-25T21:49:58.428999</dc:date>
    <dc:format>image/svg+xml</dc:format>
    <dc:creator>
     <cc:Agent>
      <dc:title>Matplotlib v3.3.2, https://matplotlib.org/</dc:title>
     </cc:Agent>
    </dc:creator>
   </cc:Work>
  </rdf:RDF>
 </metadata>
 <defs>
  <style type="text/css">*{stroke-linecap:butt;stroke-linejoin:round;}</style>
 </defs>
 <g id="figure_1">
  <g id="patch_1">
   <path d="M 0 384.710938 
L 821.423437 384.710938 
L 821.423437 0 
L 0 0 
z
" style="fill:#ffffff;"/>
  </g>
  <g id="axes_1">
   <g id="patch_2">
    <path d="M 33.023438 348.103125 
L 388.114347 348.103125 
L 388.114347 21.943125 
L 33.023438 21.943125 
z
" style="fill:#eaeaf2;"/>
   </g>
   <g id="matplotlib.axis_1">
    <g id="xtick_1">
     <g id="line2d_1">
      <path clip-path="url(#p8a598b96d5)" d="M 58.140862 348.103125 
L 58.140862 21.943125 
" style="fill:none;stroke:#ffffff;stroke-linecap:round;stroke-width:0.8;"/>
     </g>
     <g id="text_1">
      <!-- 0 -->
      <g style="fill:#262626;" transform="translate(55.360393 362.260938)scale(0.1 -0.1)">
       <defs>
        <path d="M 4.15625 35.296875 
Q 4.15625 48 6.765625 55.734375 
Q 9.375 63.484375 14.515625 67.671875 
Q 19.671875 71.875 27.484375 71.875 
Q 33.25 71.875 37.59375 69.546875 
Q 41.9375 67.234375 44.765625 62.859375 
Q 47.609375 58.5 49.21875 52.21875 
Q 50.828125 45.953125 50.828125 35.296875 
Q 50.828125 22.703125 48.234375 14.96875 
Q 45.65625 7.234375 40.5 3 
Q 35.359375 -1.21875 27.484375 -1.21875 
Q 17.140625 -1.21875 11.234375 6.203125 
Q 4.15625 15.140625 4.15625 35.296875 
z
M 13.1875 35.296875 
Q 13.1875 17.671875 17.3125 11.828125 
Q 21.4375 6 27.484375 6 
Q 33.546875 6 37.671875 11.859375 
Q 41.796875 17.71875 41.796875 35.296875 
Q 41.796875 52.984375 37.671875 58.78125 
Q 33.546875 64.59375 27.390625 64.59375 
Q 21.34375 64.59375 17.71875 59.46875 
Q 13.1875 52.9375 13.1875 35.296875 
z
" id="ArialMT-48"/>
       </defs>
       <use xlink:href="#ArialMT-48"/>
      </g>
     </g>
    </g>
    <g id="xtick_2">
     <g id="line2d_2">
      <path clip-path="url(#p8a598b96d5)" d="M 109.30405 348.103125 
L 109.30405 21.943125 
" style="fill:none;stroke:#ffffff;stroke-linecap:round;stroke-width:0.8;"/>
     </g>
     <g id="text_2">
      <!-- 1 -->
      <g style="fill:#262626;" transform="translate(106.523581 362.260938)scale(0.1 -0.1)">
       <defs>
        <path d="M 37.25 0 
L 28.46875 0 
L 28.46875 56 
Q 25.296875 52.984375 20.140625 49.953125 
Q 14.984375 46.921875 10.890625 45.40625 
L 10.890625 53.90625 
Q 18.265625 57.375 23.78125 62.296875 
Q 29.296875 67.234375 31.59375 71.875 
L 37.25 71.875 
z
" id="ArialMT-49"/>
       </defs>
       <use xlink:href="#ArialMT-49"/>
      </g>
     </g>
    </g>
    <g id="xtick_3">
     <g id="line2d_3">
      <path clip-path="url(#p8a598b96d5)" d="M 160.467238 348.103125 
L 160.467238 21.943125 
" style="fill:none;stroke:#ffffff;stroke-linecap:round;stroke-width:0.8;"/>
     </g>
     <g id="text_3">
      <!-- 2 -->
      <g style="fill:#262626;" transform="translate(157.686769 362.260938)scale(0.1 -0.1)">
       <defs>
        <path d="M 50.34375 8.453125 
L 50.34375 0 
L 3.03125 0 
Q 2.9375 3.171875 4.046875 6.109375 
Q 5.859375 10.9375 9.828125 15.625 
Q 13.8125 20.3125 21.34375 26.46875 
Q 33.015625 36.03125 37.109375 41.625 
Q 41.21875 47.21875 41.21875 52.203125 
Q 41.21875 57.421875 37.46875 61 
Q 33.734375 64.59375 27.734375 64.59375 
Q 21.390625 64.59375 17.578125 60.78125 
Q 13.765625 56.984375 13.71875 50.25 
L 4.6875 51.171875 
Q 5.609375 61.28125 11.65625 66.578125 
Q 17.71875 71.875 27.9375 71.875 
Q 38.234375 71.875 44.234375 66.15625 
Q 50.25 60.453125 50.25 52 
Q 50.25 47.703125 48.484375 43.546875 
Q 46.734375 39.40625 42.65625 34.8125 
Q 38.578125 30.21875 29.109375 22.21875 
Q 21.1875 15.578125 18.9375 13.203125 
Q 16.703125 10.84375 15.234375 8.453125 
z
" id="ArialMT-50"/>
       </defs>
       <use xlink:href="#ArialMT-50"/>
      </g>
     </g>
    </g>
    <g id="xtick_4">
     <g id="line2d_4">
      <path clip-path="url(#p8a598b96d5)" d="M 211.630426 348.103125 
L 211.630426 21.943125 
" style="fill:none;stroke:#ffffff;stroke-linecap:round;stroke-width:0.8;"/>
     </g>
     <g id="text_4">
      <!-- 3 -->
      <g style="fill:#262626;" transform="translate(208.849957 362.260938)scale(0.1 -0.1)">
       <defs>
        <path d="M 4.203125 18.890625 
L 12.984375 20.0625 
Q 14.5 12.59375 18.140625 9.296875 
Q 21.78125 6 27 6 
Q 33.203125 6 37.46875 10.296875 
Q 41.75 14.59375 41.75 20.953125 
Q 41.75 27 37.796875 30.921875 
Q 33.84375 34.859375 27.734375 34.859375 
Q 25.25 34.859375 21.53125 33.890625 
L 22.515625 41.609375 
Q 23.390625 41.5 23.921875 41.5 
Q 29.546875 41.5 34.03125 44.421875 
Q 38.53125 47.359375 38.53125 53.46875 
Q 38.53125 58.296875 35.25 61.46875 
Q 31.984375 64.65625 26.8125 64.65625 
Q 21.6875 64.65625 18.265625 61.421875 
Q 14.84375 58.203125 13.875 51.765625 
L 5.078125 53.328125 
Q 6.6875 62.15625 12.390625 67.015625 
Q 18.109375 71.875 26.609375 71.875 
Q 32.46875 71.875 37.390625 69.359375 
Q 42.328125 66.84375 44.9375 62.5 
Q 47.5625 58.15625 47.5625 53.265625 
Q 47.5625 48.640625 45.0625 44.828125 
Q 42.578125 41.015625 37.703125 38.765625 
Q 44.046875 37.3125 47.5625 32.6875 
Q 51.078125 28.078125 51.078125 21.140625 
Q 51.078125 11.765625 44.234375 5.25 
Q 37.40625 -1.265625 26.953125 -1.265625 
Q 17.53125 -1.265625 11.296875 4.34375 
Q 5.078125 9.96875 4.203125 18.890625 
z
" id="ArialMT-51"/>
       </defs>
       <use xlink:href="#ArialMT-51"/>
      </g>
     </g>
    </g>
    <g id="xtick_5">
     <g id="line2d_5">
      <path clip-path="url(#p8a598b96d5)" d="M 262.793614 348.103125 
L 262.793614 21.943125 
" style="fill:none;stroke:#ffffff;stroke-linecap:round;stroke-width:0.8;"/>
     </g>
     <g id="text_5">
      <!-- 4 -->
      <g style="fill:#262626;" transform="translate(260.013145 362.260938)scale(0.1 -0.1)">
       <defs>
        <path d="M 32.328125 0 
L 32.328125 17.140625 
L 1.265625 17.140625 
L 1.265625 25.203125 
L 33.9375 71.578125 
L 41.109375 71.578125 
L 41.109375 25.203125 
L 50.78125 25.203125 
L 50.78125 17.140625 
L 41.109375 17.140625 
L 41.109375 0 
z
M 32.328125 25.203125 
L 32.328125 57.46875 
L 9.90625 25.203125 
z
" id="ArialMT-52"/>
       </defs>
       <use xlink:href="#ArialMT-52"/>
      </g>
     </g>
    </g>
    <g id="xtick_6">
     <g id="line2d_6">
      <path clip-path="url(#p8a598b96d5)" d="M 313.956802 348.103125 
L 313.956802 21.943125 
" style="fill:none;stroke:#ffffff;stroke-linecap:round;stroke-width:0.8;"/>
     </g>
     <g id="text_6">
      <!-- 5 -->
      <g style="fill:#262626;" transform="translate(311.176333 362.260938)scale(0.1 -0.1)">
       <defs>
        <path d="M 4.15625 18.75 
L 13.375 19.53125 
Q 14.40625 12.796875 18.140625 9.390625 
Q 21.875 6 27.15625 6 
Q 33.5 6 37.890625 10.78125 
Q 42.28125 15.578125 42.28125 23.484375 
Q 42.28125 31 38.0625 35.34375 
Q 33.84375 39.703125 27 39.703125 
Q 22.75 39.703125 19.328125 37.765625 
Q 15.921875 35.84375 13.96875 32.765625 
L 5.71875 33.84375 
L 12.640625 70.609375 
L 48.25 70.609375 
L 48.25 62.203125 
L 19.671875 62.203125 
L 15.828125 42.96875 
Q 22.265625 47.46875 29.34375 47.46875 
Q 38.71875 47.46875 45.15625 40.96875 
Q 51.609375 34.46875 51.609375 24.265625 
Q 51.609375 14.546875 45.953125 7.46875 
Q 39.0625 -1.21875 27.15625 -1.21875 
Q 17.390625 -1.21875 11.203125 4.25 
Q 5.03125 9.71875 4.15625 18.75 
z
" id="ArialMT-53"/>
       </defs>
       <use xlink:href="#ArialMT-53"/>
      </g>
     </g>
    </g>
    <g id="xtick_7">
     <g id="line2d_7">
      <path clip-path="url(#p8a598b96d5)" d="M 365.11999 348.103125 
L 365.11999 21.943125 
" style="fill:none;stroke:#ffffff;stroke-linecap:round;stroke-width:0.8;"/>
     </g>
     <g id="text_7">
      <!-- 6 -->
      <g style="fill:#262626;" transform="translate(362.339521 362.260938)scale(0.1 -0.1)">
       <defs>
        <path d="M 49.75 54.046875 
L 41.015625 53.375 
Q 39.84375 58.546875 37.703125 60.890625 
Q 34.125 64.65625 28.90625 64.65625 
Q 24.703125 64.65625 21.53125 62.3125 
Q 17.390625 59.28125 14.984375 53.46875 
Q 12.59375 47.65625 12.5 36.921875 
Q 15.671875 41.75 20.265625 44.09375 
Q 24.859375 46.4375 29.890625 46.4375 
Q 38.671875 46.4375 44.84375 39.96875 
Q 51.03125 33.5 51.03125 23.25 
Q 51.03125 16.5 48.125 10.71875 
Q 45.21875 4.9375 40.140625 1.859375 
Q 35.0625 -1.21875 28.609375 -1.21875 
Q 17.625 -1.21875 10.6875 6.859375 
Q 3.765625 14.9375 3.765625 33.5 
Q 3.765625 54.25 11.421875 63.671875 
Q 18.109375 71.875 29.4375 71.875 
Q 37.890625 71.875 43.28125 67.140625 
Q 48.6875 62.40625 49.75 54.046875 
z
M 13.875 23.1875 
Q 13.875 18.65625 15.796875 14.5 
Q 17.71875 10.359375 21.1875 8.171875 
Q 24.65625 6 28.46875 6 
Q 34.03125 6 38.03125 10.484375 
Q 42.046875 14.984375 42.046875 22.703125 
Q 42.046875 30.125 38.078125 34.390625 
Q 34.125 38.671875 28.125 38.671875 
Q 22.171875 38.671875 18.015625 34.390625 
Q 13.875 30.125 13.875 23.1875 
z
" id="ArialMT-54"/>
       </defs>
       <use xlink:href="#ArialMT-54"/>
      </g>
     </g>
    </g>
    <g id="text_8">
     <!-- oldbalance_orig -->
     <g style="fill:#262626;" transform="translate(175.266548 375.40625)scale(0.1 -0.1)">
      <defs>
       <path d="M 3.328125 25.921875 
Q 3.328125 40.328125 11.328125 47.265625 
Q 18.015625 53.03125 27.640625 53.03125 
Q 38.328125 53.03125 45.109375 46.015625 
Q 51.90625 39.015625 51.90625 26.65625 
Q 51.90625 16.65625 48.90625 10.90625 
Q 45.90625 5.171875 40.15625 2 
Q 34.421875 -1.171875 27.640625 -1.171875 
Q 16.75 -1.171875 10.03125 5.8125 
Q 3.328125 12.796875 3.328125 25.921875 
z
M 12.359375 25.921875 
Q 12.359375 15.96875 16.703125 11.015625 
Q 21.046875 6.0625 27.640625 6.0625 
Q 34.1875 6.0625 38.53125 11.03125 
Q 42.875 16.015625 42.875 26.21875 
Q 42.875 35.84375 38.5 40.796875 
Q 34.125 45.75 27.640625 45.75 
Q 21.046875 45.75 16.703125 40.8125 
Q 12.359375 35.890625 12.359375 25.921875 
z
" id="ArialMT-111"/>
       <path d="M 6.390625 0 
L 6.390625 71.578125 
L 15.1875 71.578125 
L 15.1875 0 
z
" id="ArialMT-108"/>
       <path d="M 40.234375 0 
L 40.234375 6.546875 
Q 35.296875 -1.171875 25.734375 -1.171875 
Q 19.53125 -1.171875 14.328125 2.25 
Q 9.125 5.671875 6.265625 11.796875 
Q 3.421875 17.921875 3.421875 25.875 
Q 3.421875 33.640625 6 39.96875 
Q 8.59375 46.296875 13.765625 49.65625 
Q 18.953125 53.03125 25.34375 53.03125 
Q 30.03125 53.03125 33.6875 51.046875 
Q 37.359375 49.078125 39.65625 45.90625 
L 39.65625 71.578125 
L 48.390625 71.578125 
L 48.390625 0 
z
M 12.453125 25.875 
Q 12.453125 15.921875 16.640625 10.984375 
Q 20.84375 6.0625 26.5625 6.0625 
Q 32.328125 6.0625 36.34375 10.765625 
Q 40.375 15.484375 40.375 25.140625 
Q 40.375 35.796875 36.265625 40.765625 
Q 32.171875 45.75 26.171875 45.75 
Q 20.3125 45.75 16.375 40.96875 
Q 12.453125 36.1875 12.453125 25.875 
z
" id="ArialMT-100"/>
       <path d="M 14.703125 0 
L 6.546875 0 
L 6.546875 71.578125 
L 15.328125 71.578125 
L 15.328125 46.046875 
Q 20.90625 53.03125 29.546875 53.03125 
Q 34.328125 53.03125 38.59375 51.09375 
Q 42.875 49.171875 45.625 45.671875 
Q 48.390625 42.1875 49.953125 37.25 
Q 51.515625 32.328125 51.515625 26.703125 
Q 51.515625 13.375 44.921875 6.09375 
Q 38.328125 -1.171875 29.109375 -1.171875 
Q 19.921875 -1.171875 14.703125 6.5 
z
M 14.59375 26.3125 
Q 14.59375 17 17.140625 12.84375 
Q 21.296875 6.0625 28.375 6.0625 
Q 34.125 6.0625 38.328125 11.0625 
Q 42.53125 16.0625 42.53125 25.984375 
Q 42.53125 36.140625 38.5 40.96875 
Q 34.46875 45.796875 28.765625 45.796875 
Q 23 45.796875 18.796875 40.796875 
Q 14.59375 35.796875 14.59375 26.3125 
z
" id="ArialMT-98"/>
       <path d="M 40.4375 6.390625 
Q 35.546875 2.25 31.03125 0.53125 
Q 26.515625 -1.171875 21.34375 -1.171875 
Q 12.796875 -1.171875 8.203125 3 
Q 3.609375 7.171875 3.609375 13.671875 
Q 3.609375 17.484375 5.34375 20.625 
Q 7.078125 23.78125 9.890625 25.6875 
Q 12.703125 27.59375 16.21875 28.5625 
Q 18.796875 29.25 24.03125 29.890625 
Q 34.671875 31.15625 39.703125 32.90625 
Q 39.75 34.71875 39.75 35.203125 
Q 39.75 40.578125 37.25 42.78125 
Q 33.890625 45.75 27.25 45.75 
Q 21.046875 45.75 18.09375 43.578125 
Q 15.140625 41.40625 13.71875 35.890625 
L 5.125 37.0625 
Q 6.296875 42.578125 8.984375 45.96875 
Q 11.671875 49.359375 16.75 51.1875 
Q 21.828125 53.03125 28.515625 53.03125 
Q 35.15625 53.03125 39.296875 51.46875 
Q 43.453125 49.90625 45.40625 47.53125 
Q 47.359375 45.171875 48.140625 41.546875 
Q 48.578125 39.3125 48.578125 33.453125 
L 48.578125 21.734375 
Q 48.578125 9.46875 49.140625 6.21875 
Q 49.703125 2.984375 51.375 0 
L 42.1875 0 
Q 40.828125 2.734375 40.4375 6.390625 
z
M 39.703125 26.03125 
Q 34.90625 24.078125 25.34375 22.703125 
Q 19.921875 21.921875 17.671875 20.9375 
Q 15.4375 19.96875 14.203125 18.09375 
Q 12.984375 16.21875 12.984375 13.921875 
Q 12.984375 10.40625 15.640625 8.0625 
Q 18.3125 5.71875 23.4375 5.71875 
Q 28.515625 5.71875 32.46875 7.9375 
Q 36.421875 10.15625 38.28125 14.015625 
Q 39.703125 17 39.703125 22.796875 
z
" id="ArialMT-97"/>
       <path d="M 6.59375 0 
L 6.59375 51.859375 
L 14.5 51.859375 
L 14.5 44.484375 
Q 20.21875 53.03125 31 53.03125 
Q 35.6875 53.03125 39.625 51.34375 
Q 43.5625 49.65625 45.515625 46.921875 
Q 47.46875 44.1875 48.25 40.4375 
Q 48.734375 37.984375 48.734375 31.890625 
L 48.734375 0 
L 39.9375 0 
L 39.9375 31.546875 
Q 39.9375 36.921875 38.90625 39.578125 
Q 37.890625 42.234375 35.28125 43.8125 
Q 32.671875 45.40625 29.15625 45.40625 
Q 23.53125 45.40625 19.453125 41.84375 
Q 15.375 38.28125 15.375 28.328125 
L 15.375 0 
z
" id="ArialMT-110"/>
       <path d="M 40.4375 19 
L 49.078125 17.875 
Q 47.65625 8.9375 41.8125 3.875 
Q 35.984375 -1.171875 27.484375 -1.171875 
Q 16.84375 -1.171875 10.375 5.78125 
Q 3.90625 12.75 3.90625 25.734375 
Q 3.90625 34.125 6.6875 40.421875 
Q 9.46875 46.734375 15.15625 49.875 
Q 20.84375 53.03125 27.546875 53.03125 
Q 35.984375 53.03125 41.359375 48.75 
Q 46.734375 44.484375 48.25 36.625 
L 39.703125 35.296875 
Q 38.484375 40.53125 35.375 43.15625 
Q 32.28125 45.796875 27.875 45.796875 
Q 21.234375 45.796875 17.078125 41.03125 
Q 12.9375 36.28125 12.9375 25.984375 
Q 12.9375 15.53125 16.9375 10.796875 
Q 20.953125 6.0625 27.390625 6.0625 
Q 32.5625 6.0625 36.03125 9.234375 
Q 39.5 12.40625 40.4375 19 
z
" id="ArialMT-99"/>
       <path d="M 42.09375 16.703125 
L 51.171875 15.578125 
Q 49.03125 7.625 43.21875 3.21875 
Q 37.40625 -1.171875 28.375 -1.171875 
Q 17 -1.171875 10.328125 5.828125 
Q 3.65625 12.84375 3.65625 25.484375 
Q 3.65625 38.578125 10.390625 45.796875 
Q 17.140625 53.03125 27.875 53.03125 
Q 38.28125 53.03125 44.875 45.953125 
Q 51.46875 38.875 51.46875 26.03125 
Q 51.46875 25.25 51.421875 23.6875 
L 12.75 23.6875 
Q 13.234375 15.140625 17.578125 10.59375 
Q 21.921875 6.0625 28.421875 6.0625 
Q 33.25 6.0625 36.671875 8.59375 
Q 40.09375 11.140625 42.09375 16.703125 
z
M 13.234375 30.90625 
L 42.1875 30.90625 
Q 41.609375 37.453125 38.875 40.71875 
Q 34.671875 45.796875 27.984375 45.796875 
Q 21.921875 45.796875 17.796875 41.75 
Q 13.671875 37.703125 13.234375 30.90625 
z
" id="ArialMT-101"/>
       <path d="M -1.515625 -19.875 
L -1.515625 -13.53125 
L 56.734375 -13.53125 
L 56.734375 -19.875 
z
" id="ArialMT-95"/>
       <path d="M 6.5 0 
L 6.5 51.859375 
L 14.40625 51.859375 
L 14.40625 44 
Q 17.4375 49.515625 20 51.265625 
Q 22.5625 53.03125 25.640625 53.03125 
Q 30.078125 53.03125 34.671875 50.203125 
L 31.640625 42.046875 
Q 28.421875 43.953125 25.203125 43.953125 
Q 22.3125 43.953125 20.015625 42.21875 
Q 17.71875 40.484375 16.75 37.40625 
Q 15.28125 32.71875 15.28125 27.15625 
L 15.28125 0 
z
" id="ArialMT-114"/>
       <path d="M 6.640625 61.46875 
L 6.640625 71.578125 
L 15.4375 71.578125 
L 15.4375 61.46875 
z
M 6.640625 0 
L 6.640625 51.859375 
L 15.4375 51.859375 
L 15.4375 0 
z
" id="ArialMT-105"/>
       <path d="M 4.984375 -4.296875 
L 13.53125 -5.5625 
Q 14.0625 -9.515625 16.5 -11.328125 
Q 19.78125 -13.765625 25.4375 -13.765625 
Q 31.546875 -13.765625 34.859375 -11.328125 
Q 38.1875 -8.890625 39.359375 -4.5 
Q 40.046875 -1.8125 39.984375 6.78125 
Q 34.234375 0 25.640625 0 
Q 14.9375 0 9.078125 7.71875 
Q 3.21875 15.4375 3.21875 26.21875 
Q 3.21875 33.640625 5.90625 39.90625 
Q 8.59375 46.1875 13.6875 49.609375 
Q 18.796875 53.03125 25.6875 53.03125 
Q 34.859375 53.03125 40.828125 45.609375 
L 40.828125 51.859375 
L 48.921875 51.859375 
L 48.921875 7.03125 
Q 48.921875 -5.078125 46.453125 -10.125 
Q 44 -15.1875 38.640625 -18.109375 
Q 33.296875 -21.046875 25.484375 -21.046875 
Q 16.21875 -21.046875 10.5 -16.875 
Q 4.78125 -12.703125 4.984375 -4.296875 
z
M 12.25 26.859375 
Q 12.25 16.65625 16.296875 11.96875 
Q 20.359375 7.28125 26.46875 7.28125 
Q 32.515625 7.28125 36.609375 11.9375 
Q 40.71875 16.609375 40.71875 26.5625 
Q 40.71875 36.078125 36.5 40.90625 
Q 32.28125 45.75 26.3125 45.75 
Q 20.453125 45.75 16.34375 40.984375 
Q 12.25 36.234375 12.25 26.859375 
z
" id="ArialMT-103"/>
      </defs>
      <use xlink:href="#ArialMT-111"/>
      <use x="55.615234" xlink:href="#ArialMT-108"/>
      <use x="77.832031" xlink:href="#ArialMT-100"/>
      <use x="133.447266" xlink:href="#ArialMT-98"/>
      <use x="189.0625" xlink:href="#ArialMT-97"/>
      <use x="244.677734" xlink:href="#ArialMT-108"/>
      <use x="266.894531" xlink:href="#ArialMT-97"/>
      <use x="322.509766" xlink:href="#ArialMT-110"/>
      <use x="378.125" xlink:href="#ArialMT-99"/>
      <use x="428.125" xlink:href="#ArialMT-101"/>
      <use x="483.740234" xlink:href="#ArialMT-95"/>
      <use x="539.355469" xlink:href="#ArialMT-111"/>
      <use x="594.970703" xlink:href="#ArialMT-114"/>
      <use x="628.271484" xlink:href="#ArialMT-105"/>
      <use x="650.488281" xlink:href="#ArialMT-103"/>
     </g>
    </g>
    <g id="text_9">
     <!-- 1e7 -->
     <g style="fill:#262626;" transform="translate(371.431534 374.40625)scale(0.1 -0.1)">
      <defs>
       <path d="M 4.734375 62.203125 
L 4.734375 70.65625 
L 51.078125 70.65625 
L 51.078125 63.8125 
Q 44.234375 56.546875 37.515625 44.484375 
Q 30.8125 32.421875 27.15625 19.671875 
Q 24.515625 10.6875 23.78125 0 
L 14.75 0 
Q 14.890625 8.453125 18.0625 20.40625 
Q 21.234375 32.375 27.171875 43.484375 
Q 33.109375 54.59375 39.796875 62.203125 
z
" id="ArialMT-55"/>
      </defs>
      <use xlink:href="#ArialMT-49"/>
      <use x="55.615234" xlink:href="#ArialMT-101"/>
      <use x="111.230469" xlink:href="#ArialMT-55"/>
     </g>
    </g>
   </g>
   <g id="matplotlib.axis_2">
    <g id="ytick_1">
     <g id="line2d_8">
      <path clip-path="url(#p8a598b96d5)" d="M 33.023438 348.103125 
L 388.114347 348.103125 
" style="fill:none;stroke:#ffffff;stroke-linecap:round;stroke-width:0.8;"/>
     </g>
     <g id="text_10">
      <!-- 0 -->
      <g style="fill:#262626;" transform="translate(20.4625 351.682031)scale(0.1 -0.1)">
       <use xlink:href="#ArialMT-48"/>
      </g>
     </g>
    </g>
    <g id="ytick_2">
     <g id="line2d_9">
      <path clip-path="url(#p8a598b96d5)" d="M 33.023438 295.666801 
L 388.114347 295.666801 
" style="fill:none;stroke:#ffffff;stroke-linecap:round;stroke-width:0.8;"/>
     </g>
     <g id="text_11">
      <!-- 1 -->
      <g style="fill:#262626;" transform="translate(20.4625 299.245707)scale(0.1 -0.1)">
       <use xlink:href="#ArialMT-49"/>
      </g>
     </g>
    </g>
    <g id="ytick_3">
     <g id="line2d_10">
      <path clip-path="url(#p8a598b96d5)" d="M 33.023438 243.230476 
L 388.114347 243.230476 
" style="fill:none;stroke:#ffffff;stroke-linecap:round;stroke-width:0.8;"/>
     </g>
     <g id="text_12">
      <!-- 2 -->
      <g style="fill:#262626;" transform="translate(20.4625 246.809382)scale(0.1 -0.1)">
       <use xlink:href="#ArialMT-50"/>
      </g>
     </g>
    </g>
    <g id="ytick_4">
     <g id="line2d_11">
      <path clip-path="url(#p8a598b96d5)" d="M 33.023438 190.794152 
L 388.114347 190.794152 
" style="fill:none;stroke:#ffffff;stroke-linecap:round;stroke-width:0.8;"/>
     </g>
     <g id="text_13">
      <!-- 3 -->
      <g style="fill:#262626;" transform="translate(20.4625 194.373058)scale(0.1 -0.1)">
       <use xlink:href="#ArialMT-51"/>
      </g>
     </g>
    </g>
    <g id="ytick_5">
     <g id="line2d_12">
      <path clip-path="url(#p8a598b96d5)" d="M 33.023438 138.357827 
L 388.114347 138.357827 
" style="fill:none;stroke:#ffffff;stroke-linecap:round;stroke-width:0.8;"/>
     </g>
     <g id="text_14">
      <!-- 4 -->
      <g style="fill:#262626;" transform="translate(20.4625 141.936733)scale(0.1 -0.1)">
       <use xlink:href="#ArialMT-52"/>
      </g>
     </g>
    </g>
    <g id="ytick_6">
     <g id="line2d_13">
      <path clip-path="url(#p8a598b96d5)" d="M 33.023438 85.921503 
L 388.114347 85.921503 
" style="fill:none;stroke:#ffffff;stroke-linecap:round;stroke-width:0.8;"/>
     </g>
     <g id="text_15">
      <!-- 5 -->
      <g style="fill:#262626;" transform="translate(20.4625 89.500409)scale(0.1 -0.1)">
       <use xlink:href="#ArialMT-53"/>
      </g>
     </g>
    </g>
    <g id="ytick_7">
     <g id="line2d_14">
      <path clip-path="url(#p8a598b96d5)" d="M 33.023438 33.485178 
L 388.114347 33.485178 
" style="fill:none;stroke:#ffffff;stroke-linecap:round;stroke-width:0.8;"/>
     </g>
     <g id="text_16">
      <!-- 6 -->
      <g style="fill:#262626;" transform="translate(20.4625 37.064084)scale(0.1 -0.1)">
       <use xlink:href="#ArialMT-54"/>
      </g>
     </g>
    </g>
    <g id="text_17">
     <!-- Density -->
     <g style="fill:#262626;" transform="translate(14.357812 201.695)rotate(-90)scale(0.1 -0.1)">
      <defs>
       <path d="M 7.71875 0 
L 7.71875 71.578125 
L 32.375 71.578125 
Q 40.71875 71.578125 45.125 70.5625 
Q 51.265625 69.140625 55.609375 65.4375 
Q 61.28125 60.640625 64.078125 53.1875 
Q 66.890625 45.75 66.890625 36.1875 
Q 66.890625 28.03125 64.984375 21.734375 
Q 63.09375 15.4375 60.109375 11.296875 
Q 57.125 7.171875 53.578125 4.796875 
Q 50.046875 2.4375 45.046875 1.21875 
Q 40.046875 0 33.546875 0 
z
M 17.1875 8.453125 
L 32.46875 8.453125 
Q 39.546875 8.453125 43.578125 9.765625 
Q 47.609375 11.078125 50 13.484375 
Q 53.375 16.84375 55.25 22.53125 
Q 57.125 28.21875 57.125 36.328125 
Q 57.125 47.5625 53.4375 53.59375 
Q 49.75 59.625 44.484375 61.671875 
Q 40.671875 63.140625 32.234375 63.140625 
L 17.1875 63.140625 
z
" id="ArialMT-68"/>
       <path d="M 3.078125 15.484375 
L 11.765625 16.84375 
Q 12.5 11.625 15.84375 8.84375 
Q 19.1875 6.0625 25.203125 6.0625 
Q 31.25 6.0625 34.171875 8.515625 
Q 37.109375 10.984375 37.109375 14.3125 
Q 37.109375 17.28125 34.515625 19 
Q 32.71875 20.171875 25.53125 21.96875 
Q 15.875 24.421875 12.140625 26.203125 
Q 8.40625 27.984375 6.46875 31.125 
Q 4.546875 34.28125 4.546875 38.09375 
Q 4.546875 41.546875 6.125 44.5 
Q 7.71875 47.46875 10.453125 49.421875 
Q 12.5 50.921875 16.03125 51.96875 
Q 19.578125 53.03125 23.640625 53.03125 
Q 29.734375 53.03125 34.34375 51.265625 
Q 38.96875 49.515625 41.15625 46.5 
Q 43.359375 43.5 44.1875 38.484375 
L 35.59375 37.3125 
Q 35.015625 41.3125 32.203125 43.546875 
Q 29.390625 45.796875 24.265625 45.796875 
Q 18.21875 45.796875 15.625 43.796875 
Q 13.03125 41.796875 13.03125 39.109375 
Q 13.03125 37.40625 14.109375 36.03125 
Q 15.1875 34.625 17.484375 33.6875 
Q 18.796875 33.203125 25.25 31.453125 
Q 34.578125 28.953125 38.25 27.359375 
Q 41.9375 25.78125 44.03125 22.75 
Q 46.140625 19.734375 46.140625 15.234375 
Q 46.140625 10.84375 43.578125 6.953125 
Q 41.015625 3.078125 36.171875 0.953125 
Q 31.34375 -1.171875 25.25 -1.171875 
Q 15.140625 -1.171875 9.84375 3.03125 
Q 4.546875 7.234375 3.078125 15.484375 
z
" id="ArialMT-115"/>
       <path d="M 25.78125 7.859375 
L 27.046875 0.09375 
Q 23.34375 -0.6875 20.40625 -0.6875 
Q 15.625 -0.6875 12.984375 0.828125 
Q 10.359375 2.34375 9.28125 4.8125 
Q 8.203125 7.28125 8.203125 15.1875 
L 8.203125 45.015625 
L 1.765625 45.015625 
L 1.765625 51.859375 
L 8.203125 51.859375 
L 8.203125 64.703125 
L 16.9375 69.96875 
L 16.9375 51.859375 
L 25.78125 51.859375 
L 25.78125 45.015625 
L 16.9375 45.015625 
L 16.9375 14.703125 
Q 16.9375 10.9375 17.40625 9.859375 
Q 17.875 8.796875 18.921875 8.15625 
Q 19.96875 7.515625 21.921875 7.515625 
Q 23.390625 7.515625 25.78125 7.859375 
z
" id="ArialMT-116"/>
       <path d="M 6.203125 -19.96875 
L 5.21875 -11.71875 
Q 8.109375 -12.5 10.25 -12.5 
Q 13.1875 -12.5 14.9375 -11.515625 
Q 16.703125 -10.546875 17.828125 -8.796875 
Q 18.65625 -7.46875 20.515625 -2.25 
Q 20.75 -1.515625 21.296875 -0.09375 
L 1.609375 51.859375 
L 11.078125 51.859375 
L 21.875 21.828125 
Q 23.96875 16.109375 25.640625 9.8125 
Q 27.15625 15.875 29.25 21.625 
L 40.328125 51.859375 
L 49.125 51.859375 
L 29.390625 -0.875 
Q 26.21875 -9.421875 24.46875 -12.640625 
Q 22.125 -17 19.09375 -19.015625 
Q 16.0625 -21.046875 11.859375 -21.046875 
Q 9.328125 -21.046875 6.203125 -19.96875 
z
" id="ArialMT-121"/>
      </defs>
      <use xlink:href="#ArialMT-68"/>
      <use x="72.216797" xlink:href="#ArialMT-101"/>
      <use x="127.832031" xlink:href="#ArialMT-110"/>
      <use x="183.447266" xlink:href="#ArialMT-115"/>
      <use x="233.447266" xlink:href="#ArialMT-105"/>
      <use x="255.664062" xlink:href="#ArialMT-116"/>
      <use x="283.447266" xlink:href="#ArialMT-121"/>
     </g>
    </g>
    <g id="text_18">
     <!-- 1e−7 -->
     <g style="fill:#262626;" transform="translate(33.023438 18.943125)scale(0.1 -0.1)">
      <defs>
       <path d="M 52.828125 31.203125 
L 5.5625 31.203125 
L 5.5625 39.40625 
L 52.828125 39.40625 
z
" id="ArialMT-8722"/>
      </defs>
      <use xlink:href="#ArialMT-49"/>
      <use x="55.615234" xlink:href="#ArialMT-101"/>
      <use x="111.230469" xlink:href="#ArialMT-8722"/>
      <use x="169.628906" xlink:href="#ArialMT-55"/>
     </g>
    </g>
   </g>
   <g id="patch_3">
    <path clip-path="url(#p8a598b96d5)" d="M 58.140862 348.103125 
L 64.237983 348.103125 
L 64.237983 37.474554 
L 58.140862 37.474554 
z
" style="fill:#1f77b4;opacity:0.4;stroke:#ffffff;stroke-linejoin:miter;"/>
   </g>
   <g id="patch_4">
    <path clip-path="url(#p8a598b96d5)" d="M 64.237983 348.103125 
L 70.335104 348.103125 
L 70.335104 295.492353 
L 64.237983 295.492353 
z
" style="fill:#1f77b4;opacity:0.4;stroke:#ffffff;stroke-linejoin:miter;"/>
   </g>
   <g id="patch_5">
    <path clip-path="url(#p8a598b96d5)" d="M 70.335104 348.103125 
L 76.432225 348.103125 
L 76.432225 325.440847 
L 70.335104 325.440847 
z
" style="fill:#1f77b4;opacity:0.4;stroke:#ffffff;stroke-linejoin:miter;"/>
   </g>
   <g id="patch_6">
    <path clip-path="url(#p8a598b96d5)" d="M 76.432225 348.103125 
L 82.529347 348.103125 
L 82.529347 335.405821 
L 76.432225 335.405821 
z
" style="fill:#1f77b4;opacity:0.4;stroke:#ffffff;stroke-linejoin:miter;"/>
   </g>
   <g id="patch_7">
    <path clip-path="url(#p8a598b96d5)" d="M 82.529347 348.103125 
L 88.626468 348.103125 
L 88.626468 340.227582 
L 82.529347 340.227582 
z
" style="fill:#1f77b4;opacity:0.4;stroke:#ffffff;stroke-linejoin:miter;"/>
   </g>
   <g id="patch_8">
    <path clip-path="url(#p8a598b96d5)" d="M 88.626468 348.103125 
L 94.723589 348.103125 
L 94.723589 341.45981 
L 88.626468 341.45981 
z
" style="fill:#1f77b4;opacity:0.4;stroke:#ffffff;stroke-linejoin:miter;"/>
   </g>
   <g id="patch_9">
    <path clip-path="url(#p8a598b96d5)" d="M 94.723589 348.103125 
L 100.82071 348.103125 
L 100.82071 341.888411 
L 94.723589 341.888411 
z
" style="fill:#1f77b4;opacity:0.4;stroke:#ffffff;stroke-linejoin:miter;"/>
   </g>
   <g id="patch_10">
    <path clip-path="url(#p8a598b96d5)" d="M 100.82071 348.103125 
L 106.917831 348.103125 
L 106.917831 344.138566 
L 100.82071 344.138566 
z
" style="fill:#1f77b4;opacity:0.4;stroke:#ffffff;stroke-linejoin:miter;"/>
   </g>
   <g id="patch_11">
    <path clip-path="url(#p8a598b96d5)" d="M 106.917831 348.103125 
L 113.014953 348.103125 
L 113.014953 338.727478 
L 106.917831 338.727478 
z
" style="fill:#1f77b4;opacity:0.4;stroke:#ffffff;stroke-linejoin:miter;"/>
   </g>
   <g id="patch_12">
    <path clip-path="url(#p8a598b96d5)" d="M 113.014953 348.103125 
L 119.112074 348.103125 
L 119.112074 347.353073 
L 113.014953 347.353073 
z
" style="fill:#1f77b4;opacity:0.4;stroke:#ffffff;stroke-linejoin:miter;"/>
   </g>
   <g id="patch_13">
    <path clip-path="url(#p8a598b96d5)" d="M 119.112074 348.103125 
L 125.209195 348.103125 
L 125.209195 346.924472 
L 119.112074 346.924472 
z
" style="fill:#1f77b4;opacity:0.4;stroke:#ffffff;stroke-linejoin:miter;"/>
   </g>
   <g id="patch_14">
    <path clip-path="url(#p8a598b96d5)" d="M 125.209195 348.103125 
L 131.306316 348.103125 
L 131.306316 347.567374 
L 125.209195 347.567374 
z
" style="fill:#1f77b4;opacity:0.4;stroke:#ffffff;stroke-linejoin:miter;"/>
   </g>
   <g id="patch_15">
    <path clip-path="url(#p8a598b96d5)" d="M 131.306316 348.103125 
L 137.403437 348.103125 
L 137.403437 347.674524 
L 131.306316 347.674524 
z
" style="fill:#1f77b4;opacity:0.4;stroke:#ffffff;stroke-linejoin:miter;"/>
   </g>
   <g id="patch_16">
    <path clip-path="url(#p8a598b96d5)" d="M 137.403437 348.103125 
L 143.500559 348.103125 
L 143.500559 347.513799 
L 137.403437 347.513799 
z
" style="fill:#1f77b4;opacity:0.4;stroke:#ffffff;stroke-linejoin:miter;"/>
   </g>
   <g id="patch_17">
    <path clip-path="url(#p8a598b96d5)" d="M 143.500559 348.103125 
L 149.59768 348.103125 
L 149.59768 347.674524 
L 143.500559 347.674524 
z
" style="fill:#1f77b4;opacity:0.4;stroke:#ffffff;stroke-linejoin:miter;"/>
   </g>
   <g id="patch_18">
    <path clip-path="url(#p8a598b96d5)" d="M 149.59768 348.103125 
L 155.694801 348.103125 
L 155.694801 347.781674 
L 149.59768 347.781674 
z
" style="fill:#1f77b4;opacity:0.4;stroke:#ffffff;stroke-linejoin:miter;"/>
   </g>
   <g id="patch_19">
    <path clip-path="url(#p8a598b96d5)" d="M 155.694801 348.103125 
L 161.791922 348.103125 
L 161.791922 347.620949 
L 155.694801 347.620949 
z
" style="fill:#1f77b4;opacity:0.4;stroke:#ffffff;stroke-linejoin:miter;"/>
   </g>
   <g id="patch_20">
    <path clip-path="url(#p8a598b96d5)" d="M 161.791922 348.103125 
L 167.889044 348.103125 
L 167.889044 347.888825 
L 161.791922 347.888825 
z
" style="fill:#1f77b4;opacity:0.4;stroke:#ffffff;stroke-linejoin:miter;"/>
   </g>
   <g id="patch_21">
    <path clip-path="url(#p8a598b96d5)" d="M 167.889044 348.103125 
L 173.986165 348.103125 
L 173.986165 347.9424 
L 167.889044 347.9424 
z
" style="fill:#1f77b4;opacity:0.4;stroke:#ffffff;stroke-linejoin:miter;"/>
   </g>
   <g id="patch_22">
    <path clip-path="url(#p8a598b96d5)" d="M 173.986165 348.103125 
L 180.083286 348.103125 
L 180.083286 347.888825 
L 173.986165 347.888825 
z
" style="fill:#1f77b4;opacity:0.4;stroke:#ffffff;stroke-linejoin:miter;"/>
   </g>
   <g id="patch_23">
    <path clip-path="url(#p8a598b96d5)" d="M 180.083286 348.103125 
L 186.180407 348.103125 
L 186.180407 347.888825 
L 180.083286 347.888825 
z
" style="fill:#1f77b4;opacity:0.4;stroke:#ffffff;stroke-linejoin:miter;"/>
   </g>
   <g id="patch_24">
    <path clip-path="url(#p8a598b96d5)" d="M 186.180407 348.103125 
L 192.277528 348.103125 
L 192.277528 347.835249 
L 186.180407 347.835249 
z
" style="fill:#1f77b4;opacity:0.4;stroke:#ffffff;stroke-linejoin:miter;"/>
   </g>
   <g id="patch_25">
    <path clip-path="url(#p8a598b96d5)" d="M 192.277528 348.103125 
L 198.37465 348.103125 
L 198.37465 348.04955 
L 192.277528 348.04955 
z
" style="fill:#1f77b4;opacity:0.4;stroke:#ffffff;stroke-linejoin:miter;"/>
   </g>
   <g id="patch_26">
    <path clip-path="url(#p8a598b96d5)" d="M 198.37465 348.103125 
L 204.471771 348.103125 
L 204.471771 347.995975 
L 198.37465 347.995975 
z
" style="fill:#1f77b4;opacity:0.4;stroke:#ffffff;stroke-linejoin:miter;"/>
   </g>
   <g id="patch_27">
    <path clip-path="url(#p8a598b96d5)" d="M 204.471771 348.103125 
L 210.568892 348.103125 
L 210.568892 347.995975 
L 204.471771 347.995975 
z
" style="fill:#1f77b4;opacity:0.4;stroke:#ffffff;stroke-linejoin:miter;"/>
   </g>
   <g id="patch_28">
    <path clip-path="url(#p8a598b96d5)" d="M 210.568892 348.103125 
L 216.666013 348.103125 
L 216.666013 347.9424 
L 210.568892 347.9424 
z
" style="fill:#1f77b4;opacity:0.4;stroke:#ffffff;stroke-linejoin:miter;"/>
   </g>
   <g id="patch_29">
    <path clip-path="url(#p8a598b96d5)" d="M 216.666013 348.103125 
L 222.763134 348.103125 
L 222.763134 348.04955 
L 216.666013 348.04955 
z
" style="fill:#1f77b4;opacity:0.4;stroke:#ffffff;stroke-linejoin:miter;"/>
   </g>
   <g id="patch_30">
    <path clip-path="url(#p8a598b96d5)" d="M 222.763134 348.103125 
L 228.860256 348.103125 
L 228.860256 347.995975 
L 222.763134 347.995975 
z
" style="fill:#1f77b4;opacity:0.4;stroke:#ffffff;stroke-linejoin:miter;"/>
   </g>
   <g id="patch_31">
    <path clip-path="url(#p8a598b96d5)" d="M 228.860256 348.103125 
L 234.957377 348.103125 
L 234.957377 347.995975 
L 228.860256 347.995975 
z
" style="fill:#1f77b4;opacity:0.4;stroke:#ffffff;stroke-linejoin:miter;"/>
   </g>
   <g id="patch_32">
    <path clip-path="url(#p8a598b96d5)" d="M 234.957377 348.103125 
L 241.054498 348.103125 
L 241.054498 347.9424 
L 234.957377 347.9424 
z
" style="fill:#1f77b4;opacity:0.4;stroke:#ffffff;stroke-linejoin:miter;"/>
   </g>
   <g id="patch_33">
    <path clip-path="url(#p8a598b96d5)" d="M 241.054498 348.103125 
L 247.151619 348.103125 
L 247.151619 348.103125 
L 241.054498 348.103125 
z
" style="fill:#1f77b4;opacity:0.4;stroke:#ffffff;stroke-linejoin:miter;"/>
   </g>
   <g id="patch_34">
    <path clip-path="url(#p8a598b96d5)" d="M 247.151619 348.103125 
L 253.248741 348.103125 
L 253.248741 347.9424 
L 247.151619 347.9424 
z
" style="fill:#1f77b4;opacity:0.4;stroke:#ffffff;stroke-linejoin:miter;"/>
   </g>
   <g id="patch_35">
    <path clip-path="url(#p8a598b96d5)" d="M 253.248741 348.103125 
L 259.345862 348.103125 
L 259.345862 348.103125 
L 253.248741 348.103125 
z
" style="fill:#1f77b4;opacity:0.4;stroke:#ffffff;stroke-linejoin:miter;"/>
   </g>
   <g id="patch_36">
    <path clip-path="url(#p8a598b96d5)" d="M 259.345862 348.103125 
L 265.442983 348.103125 
L 265.442983 347.995975 
L 259.345862 347.995975 
z
" style="fill:#1f77b4;opacity:0.4;stroke:#ffffff;stroke-linejoin:miter;"/>
   </g>
   <g id="patch_37">
    <path clip-path="url(#p8a598b96d5)" d="M 265.442983 348.103125 
L 271.540104 348.103125 
L 271.540104 348.103125 
L 265.442983 348.103125 
z
" style="fill:#1f77b4;opacity:0.4;stroke:#ffffff;stroke-linejoin:miter;"/>
   </g>
   <g id="patch_38">
    <path clip-path="url(#p8a598b96d5)" d="M 271.540104 348.103125 
L 277.637225 348.103125 
L 277.637225 348.04955 
L 271.540104 348.04955 
z
" style="fill:#1f77b4;opacity:0.4;stroke:#ffffff;stroke-linejoin:miter;"/>
   </g>
   <g id="patch_39">
    <path clip-path="url(#p8a598b96d5)" d="M 277.637225 348.103125 
L 283.734347 348.103125 
L 283.734347 348.103125 
L 277.637225 348.103125 
z
" style="fill:#1f77b4;opacity:0.4;stroke:#ffffff;stroke-linejoin:miter;"/>
   </g>
   <g id="patch_40">
    <path clip-path="url(#p8a598b96d5)" d="M 283.734347 348.103125 
L 289.831468 348.103125 
L 289.831468 348.04955 
L 283.734347 348.04955 
z
" style="fill:#1f77b4;opacity:0.4;stroke:#ffffff;stroke-linejoin:miter;"/>
   </g>
   <g id="patch_41">
    <path clip-path="url(#p8a598b96d5)" d="M 289.831468 348.103125 
L 295.928589 348.103125 
L 295.928589 348.04955 
L 289.831468 348.04955 
z
" style="fill:#1f77b4;opacity:0.4;stroke:#ffffff;stroke-linejoin:miter;"/>
   </g>
   <g id="patch_42">
    <path clip-path="url(#p8a598b96d5)" d="M 295.928589 348.103125 
L 302.02571 348.103125 
L 302.02571 348.04955 
L 295.928589 348.04955 
z
" style="fill:#1f77b4;opacity:0.4;stroke:#ffffff;stroke-linejoin:miter;"/>
   </g>
   <g id="patch_43">
    <path clip-path="url(#p8a598b96d5)" d="M 302.02571 348.103125 
L 308.122831 348.103125 
L 308.122831 348.103125 
L 302.02571 348.103125 
z
" style="fill:#1f77b4;opacity:0.4;stroke:#ffffff;stroke-linejoin:miter;"/>
   </g>
   <g id="patch_44">
    <path clip-path="url(#p8a598b96d5)" d="M 308.122831 348.103125 
L 314.219953 348.103125 
L 314.219953 348.04955 
L 308.122831 348.04955 
z
" style="fill:#1f77b4;opacity:0.4;stroke:#ffffff;stroke-linejoin:miter;"/>
   </g>
   <g id="patch_45">
    <path clip-path="url(#p8a598b96d5)" d="M 314.219953 348.103125 
L 320.317074 348.103125 
L 320.317074 348.04955 
L 314.219953 348.04955 
z
" style="fill:#1f77b4;opacity:0.4;stroke:#ffffff;stroke-linejoin:miter;"/>
   </g>
   <g id="patch_46">
    <path clip-path="url(#p8a598b96d5)" d="M 320.317074 348.103125 
L 326.414195 348.103125 
L 326.414195 348.103125 
L 320.317074 348.103125 
z
" style="fill:#1f77b4;opacity:0.4;stroke:#ffffff;stroke-linejoin:miter;"/>
   </g>
   <g id="patch_47">
    <path clip-path="url(#p8a598b96d5)" d="M 326.414195 348.103125 
L 332.511316 348.103125 
L 332.511316 348.103125 
L 326.414195 348.103125 
z
" style="fill:#1f77b4;opacity:0.4;stroke:#ffffff;stroke-linejoin:miter;"/>
   </g>
   <g id="patch_48">
    <path clip-path="url(#p8a598b96d5)" d="M 332.511316 348.103125 
L 338.608438 348.103125 
L 338.608438 348.103125 
L 332.511316 348.103125 
z
" style="fill:#1f77b4;opacity:0.4;stroke:#ffffff;stroke-linejoin:miter;"/>
   </g>
   <g id="patch_49">
    <path clip-path="url(#p8a598b96d5)" d="M 338.608438 348.103125 
L 344.705559 348.103125 
L 344.705559 348.103125 
L 338.608438 348.103125 
z
" style="fill:#1f77b4;opacity:0.4;stroke:#ffffff;stroke-linejoin:miter;"/>
   </g>
   <g id="patch_50">
    <path clip-path="url(#p8a598b96d5)" d="M 344.705559 348.103125 
L 350.80268 348.103125 
L 350.80268 348.103125 
L 344.705559 348.103125 
z
" style="fill:#1f77b4;opacity:0.4;stroke:#ffffff;stroke-linejoin:miter;"/>
   </g>
   <g id="patch_51">
    <path clip-path="url(#p8a598b96d5)" d="M 350.80268 348.103125 
L 356.899801 348.103125 
L 356.899801 348.04955 
L 350.80268 348.04955 
z
" style="fill:#1f77b4;opacity:0.4;stroke:#ffffff;stroke-linejoin:miter;"/>
   </g>
   <g id="patch_52">
    <path clip-path="url(#p8a598b96d5)" d="M 356.899801 348.103125 
L 362.996922 348.103125 
L 362.996922 348.04955 
L 356.899801 348.04955 
z
" style="fill:#1f77b4;opacity:0.4;stroke:#ffffff;stroke-linejoin:miter;"/>
   </g>
   <g id="line2d_15">
    <path clip-path="url(#p8a598b96d5)" d="M 49.163933 347.046637 
L 50.786094 342.995824 
L 52.408254 329.46829 
L 54.030415 296.596145 
L 55.652575 239.661674 
L 57.274735 172.70948 
L 58.896896 127.147808 
L 60.519056 126.274606 
L 62.141216 163.742673 
L 63.763377 213.538126 
L 65.385537 254.94725 
L 67.007698 282.498949 
L 68.629858 299.57793 
L 70.252018 310.614254 
L 71.874179 318.325912 
L 73.496339 323.990263 
L 75.1185 328.22292 
L 76.74066 331.424331 
L 78.36282 333.888789 
L 79.984981 335.800413 
L 81.607141 337.279651 
L 83.229302 338.429807 
L 84.851462 339.316354 
L 86.473622 339.962508 
L 89.717943 340.77373 
L 92.962264 341.453807 
L 96.206585 342.014315 
L 101.073066 343.37077 
L 102.695226 343.306602 
L 104.317387 342.620169 
L 107.561707 340.000357 
L 109.183868 339.699051 
L 110.806028 341.002336 
L 112.428189 343.286381 
L 114.050349 345.359046 
L 115.672509 346.564911 
L 117.29467 347.007011 
L 120.53899 347.038212 
L 123.783311 347.132052 
L 130.271953 347.603452 
L 133.516274 347.629821 
L 138.382755 347.554432 
L 144.871396 347.67714 
L 159.47084 347.655586 
L 165.959481 347.960378 
L 172.448123 347.945033 
L 182.181085 347.881033 
L 191.914048 347.947124 
L 195.158368 348.009642 
L 201.64701 348.013748 
L 208.135651 347.999846 
L 216.246453 347.971651 
L 222.735095 348.03326 
L 232.468057 348.002412 
L 282.755029 348.089382 
L 300.598794 348.059276 
L 328.17552 348.103114 
L 371.973851 348.102641 
L 371.973851 348.102641 
" style="fill:none;stroke:#1f77b4;stroke-linecap:round;stroke-width:1.5;"/>
   </g>
   <g id="patch_53">
    <path d="M 33.023438 348.103125 
L 33.023438 21.943125 
" style="fill:none;stroke:#ffffff;stroke-linecap:square;stroke-linejoin:miter;stroke-width:0.8;"/>
   </g>
   <g id="patch_54">
    <path d="M 388.114347 348.103125 
L 388.114347 21.943125 
" style="fill:none;stroke:#ffffff;stroke-linecap:square;stroke-linejoin:miter;stroke-width:0.8;"/>
   </g>
   <g id="patch_55">
    <path d="M 33.023438 348.103125 
L 388.114347 348.103125 
" style="fill:none;stroke:#ffffff;stroke-linecap:square;stroke-linejoin:miter;stroke-width:0.8;"/>
   </g>
   <g id="patch_56">
    <path d="M 33.023438 21.943125 
L 388.114347 21.943125 
" style="fill:none;stroke:#ffffff;stroke-linecap:square;stroke-linejoin:miter;stroke-width:0.8;"/>
   </g>
   <g id="text_19">
    <!-- Fraudulent Old Balance Origin -->
    <g style="fill:#262626;" transform="translate(129.864205 15.943125)scale(0.12 -0.12)">
     <defs>
      <path d="M 8.203125 0 
L 8.203125 71.578125 
L 56.5 71.578125 
L 56.5 63.140625 
L 17.671875 63.140625 
L 17.671875 40.96875 
L 51.265625 40.96875 
L 51.265625 32.515625 
L 17.671875 32.515625 
L 17.671875 0 
z
" id="ArialMT-70"/>
      <path d="M 40.578125 0 
L 40.578125 7.625 
Q 34.515625 -1.171875 24.125 -1.171875 
Q 19.53125 -1.171875 15.546875 0.578125 
Q 11.578125 2.34375 9.640625 5 
Q 7.71875 7.671875 6.9375 11.53125 
Q 6.390625 14.109375 6.390625 19.734375 
L 6.390625 51.859375 
L 15.1875 51.859375 
L 15.1875 23.09375 
Q 15.1875 16.21875 15.71875 13.8125 
Q 16.546875 10.359375 19.234375 8.375 
Q 21.921875 6.390625 25.875 6.390625 
Q 29.828125 6.390625 33.296875 8.421875 
Q 36.765625 10.453125 38.203125 13.9375 
Q 39.65625 17.4375 39.65625 24.078125 
L 39.65625 51.859375 
L 48.4375 51.859375 
L 48.4375 0 
z
" id="ArialMT-117"/>
      <path id="ArialMT-32"/>
      <path d="M 4.828125 34.859375 
Q 4.828125 52.6875 14.390625 62.765625 
Q 23.96875 72.859375 39.109375 72.859375 
Q 49.03125 72.859375 56.984375 68.109375 
Q 64.9375 63.375 69.109375 54.90625 
Q 73.296875 46.4375 73.296875 35.6875 
Q 73.296875 24.8125 68.890625 16.21875 
Q 64.5 7.625 56.4375 3.203125 
Q 48.390625 -1.21875 39.0625 -1.21875 
Q 28.953125 -1.21875 20.984375 3.65625 
Q 13.03125 8.546875 8.921875 16.984375 
Q 4.828125 25.4375 4.828125 34.859375 
z
M 14.59375 34.71875 
Q 14.59375 21.78125 21.546875 14.328125 
Q 28.515625 6.890625 39.015625 6.890625 
Q 49.703125 6.890625 56.609375 14.40625 
Q 63.53125 21.921875 63.53125 35.75 
Q 63.53125 44.484375 60.578125 51 
Q 57.625 57.515625 51.921875 61.109375 
Q 46.234375 64.703125 39.15625 64.703125 
Q 29.109375 64.703125 21.84375 57.78125 
Q 14.59375 50.875 14.59375 34.71875 
z
" id="ArialMT-79"/>
      <path d="M 7.328125 0 
L 7.328125 71.578125 
L 34.1875 71.578125 
Q 42.390625 71.578125 47.34375 69.40625 
Q 52.296875 67.234375 55.09375 62.71875 
Q 57.90625 58.203125 57.90625 53.265625 
Q 57.90625 48.6875 55.421875 44.625 
Q 52.9375 40.578125 47.90625 38.09375 
Q 54.390625 36.1875 57.875 31.59375 
Q 61.375 27 61.375 20.75 
Q 61.375 15.71875 59.25 11.390625 
Q 57.125 7.078125 54 4.734375 
Q 50.875 2.390625 46.15625 1.1875 
Q 41.453125 0 34.625 0 
z
M 16.796875 41.5 
L 32.28125 41.5 
Q 38.578125 41.5 41.3125 42.328125 
Q 44.921875 43.40625 46.75 45.890625 
Q 48.578125 48.390625 48.578125 52.15625 
Q 48.578125 55.71875 46.875 58.421875 
Q 45.171875 61.140625 41.984375 62.140625 
Q 38.8125 63.140625 31.109375 63.140625 
L 16.796875 63.140625 
z
M 16.796875 8.453125 
L 34.625 8.453125 
Q 39.203125 8.453125 41.0625 8.796875 
Q 44.34375 9.375 46.53125 10.734375 
Q 48.734375 12.109375 50.140625 14.71875 
Q 51.5625 17.328125 51.5625 20.75 
Q 51.5625 24.75 49.515625 27.703125 
Q 47.46875 30.671875 43.828125 31.859375 
Q 40.1875 33.0625 33.34375 33.0625 
L 16.796875 33.0625 
z
" id="ArialMT-66"/>
     </defs>
     <use xlink:href="#ArialMT-70"/>
     <use x="61.083984" xlink:href="#ArialMT-114"/>
     <use x="94.384766" xlink:href="#ArialMT-97"/>
     <use x="150" xlink:href="#ArialMT-117"/>
     <use x="205.615234" xlink:href="#ArialMT-100"/>
     <use x="261.230469" xlink:href="#ArialMT-117"/>
     <use x="316.845703" xlink:href="#ArialMT-108"/>
     <use x="339.0625" xlink:href="#ArialMT-101"/>
     <use x="394.677734" xlink:href="#ArialMT-110"/>
     <use x="450.292969" xlink:href="#ArialMT-116"/>
     <use x="478.076172" xlink:href="#ArialMT-32"/>
     <use x="505.859375" xlink:href="#ArialMT-79"/>
     <use x="583.642578" xlink:href="#ArialMT-108"/>
     <use x="605.859375" xlink:href="#ArialMT-100"/>
     <use x="661.474609" xlink:href="#ArialMT-32"/>
     <use x="689.257812" xlink:href="#ArialMT-66"/>
     <use x="755.957031" xlink:href="#ArialMT-97"/>
     <use x="811.572266" xlink:href="#ArialMT-108"/>
     <use x="833.789062" xlink:href="#ArialMT-97"/>
     <use x="889.404297" xlink:href="#ArialMT-110"/>
     <use x="945.019531" xlink:href="#ArialMT-99"/>
     <use x="995.019531" xlink:href="#ArialMT-101"/>
     <use x="1050.634766" xlink:href="#ArialMT-32"/>
     <use x="1078.417969" xlink:href="#ArialMT-79"/>
     <use x="1156.201172" xlink:href="#ArialMT-114"/>
     <use x="1189.501953" xlink:href="#ArialMT-105"/>
     <use x="1211.71875" xlink:href="#ArialMT-103"/>
     <use x="1267.333984" xlink:href="#ArialMT-105"/>
     <use x="1289.550781" xlink:href="#ArialMT-110"/>
    </g>
   </g>
  </g>
  <g id="axes_2">
   <g id="patch_57">
    <path d="M 459.132528 348.103125 
L 814.223437 348.103125 
L 814.223437 21.943125 
L 459.132528 21.943125 
z
" style="fill:#eaeaf2;"/>
   </g>
   <g id="matplotlib.axis_3">
    <g id="xtick_8">
     <g id="line2d_16">
      <path clip-path="url(#p56c45087ff)" d="M 486.138743 348.103125 
L 486.138743 21.943125 
" style="fill:none;stroke:#ffffff;stroke-linecap:round;stroke-width:0.8;"/>
     </g>
     <g id="text_20">
      <!-- 0 -->
      <g style="fill:#262626;" transform="translate(483.358274 362.260938)scale(0.1 -0.1)">
       <use xlink:href="#ArialMT-48"/>
      </g>
     </g>
    </g>
    <g id="xtick_9">
     <g id="line2d_17">
      <path clip-path="url(#p56c45087ff)" d="M 536.247466 348.103125 
L 536.247466 21.943125 
" style="fill:none;stroke:#ffffff;stroke-linecap:round;stroke-width:0.8;"/>
     </g>
     <g id="text_21">
      <!-- 1 -->
      <g style="fill:#262626;" transform="translate(533.466997 362.260938)scale(0.1 -0.1)">
       <use xlink:href="#ArialMT-49"/>
      </g>
     </g>
    </g>
    <g id="xtick_10">
     <g id="line2d_18">
      <path clip-path="url(#p56c45087ff)" d="M 586.356189 348.103125 
L 586.356189 21.943125 
" style="fill:none;stroke:#ffffff;stroke-linecap:round;stroke-width:0.8;"/>
     </g>
     <g id="text_22">
      <!-- 2 -->
      <g style="fill:#262626;" transform="translate(583.57572 362.260938)scale(0.1 -0.1)">
       <use xlink:href="#ArialMT-50"/>
      </g>
     </g>
    </g>
    <g id="xtick_11">
     <g id="line2d_19">
      <path clip-path="url(#p56c45087ff)" d="M 636.464912 348.103125 
L 636.464912 21.943125 
" style="fill:none;stroke:#ffffff;stroke-linecap:round;stroke-width:0.8;"/>
     </g>
     <g id="text_23">
      <!-- 3 -->
      <g style="fill:#262626;" transform="translate(633.684443 362.260938)scale(0.1 -0.1)">
       <use xlink:href="#ArialMT-51"/>
      </g>
     </g>
    </g>
    <g id="xtick_12">
     <g id="line2d_20">
      <path clip-path="url(#p56c45087ff)" d="M 686.573635 348.103125 
L 686.573635 21.943125 
" style="fill:none;stroke:#ffffff;stroke-linecap:round;stroke-width:0.8;"/>
     </g>
     <g id="text_24">
      <!-- 4 -->
      <g style="fill:#262626;" transform="translate(683.793166 362.260938)scale(0.1 -0.1)">
       <use xlink:href="#ArialMT-52"/>
      </g>
     </g>
    </g>
    <g id="xtick_13">
     <g id="line2d_21">
      <path clip-path="url(#p56c45087ff)" d="M 736.682358 348.103125 
L 736.682358 21.943125 
" style="fill:none;stroke:#ffffff;stroke-linecap:round;stroke-width:0.8;"/>
     </g>
     <g id="text_25">
      <!-- 5 -->
      <g style="fill:#262626;" transform="translate(733.901889 362.260938)scale(0.1 -0.1)">
       <use xlink:href="#ArialMT-53"/>
      </g>
     </g>
    </g>
    <g id="xtick_14">
     <g id="line2d_22">
      <path clip-path="url(#p56c45087ff)" d="M 786.791081 348.103125 
L 786.791081 21.943125 
" style="fill:none;stroke:#ffffff;stroke-linecap:round;stroke-width:0.8;"/>
     </g>
     <g id="text_26">
      <!-- 6 -->
      <g style="fill:#262626;" transform="translate(784.010612 362.260938)scale(0.1 -0.1)">
       <use xlink:href="#ArialMT-54"/>
      </g>
     </g>
    </g>
    <g id="text_27">
     <!-- oldbalance_orig -->
     <g style="fill:#262626;" transform="translate(601.375639 375.40625)scale(0.1 -0.1)">
      <use xlink:href="#ArialMT-111"/>
      <use x="55.615234" xlink:href="#ArialMT-108"/>
      <use x="77.832031" xlink:href="#ArialMT-100"/>
      <use x="133.447266" xlink:href="#ArialMT-98"/>
      <use x="189.0625" xlink:href="#ArialMT-97"/>
      <use x="244.677734" xlink:href="#ArialMT-108"/>
      <use x="266.894531" xlink:href="#ArialMT-97"/>
      <use x="322.509766" xlink:href="#ArialMT-110"/>
      <use x="378.125" xlink:href="#ArialMT-99"/>
      <use x="428.125" xlink:href="#ArialMT-101"/>
      <use x="483.740234" xlink:href="#ArialMT-95"/>
      <use x="539.355469" xlink:href="#ArialMT-111"/>
      <use x="594.970703" xlink:href="#ArialMT-114"/>
      <use x="628.271484" xlink:href="#ArialMT-105"/>
      <use x="650.488281" xlink:href="#ArialMT-103"/>
     </g>
    </g>
    <g id="text_28">
     <!-- 1e7 -->
     <g style="fill:#262626;" transform="translate(797.540625 374.40625)scale(0.1 -0.1)">
      <use xlink:href="#ArialMT-49"/>
      <use x="55.615234" xlink:href="#ArialMT-101"/>
      <use x="111.230469" xlink:href="#ArialMT-55"/>
     </g>
    </g>
   </g>
   <g id="matplotlib.axis_4">
    <g id="ytick_8">
     <g id="line2d_23">
      <path clip-path="url(#p56c45087ff)" d="M 459.132528 348.103125 
L 814.223437 348.103125 
" style="fill:none;stroke:#ffffff;stroke-linecap:round;stroke-width:0.8;"/>
     </g>
     <g id="text_29">
      <!-- 0 -->
      <g style="fill:#262626;" transform="translate(446.571591 351.682031)scale(0.1 -0.1)">
       <use xlink:href="#ArialMT-48"/>
      </g>
     </g>
    </g>
    <g id="ytick_9">
     <g id="line2d_24">
      <path clip-path="url(#p56c45087ff)" d="M 459.132528 275.775905 
L 814.223437 275.775905 
" style="fill:none;stroke:#ffffff;stroke-linecap:round;stroke-width:0.8;"/>
     </g>
     <g id="text_30">
      <!-- 1 -->
      <g style="fill:#262626;" transform="translate(446.571591 279.354811)scale(0.1 -0.1)">
       <use xlink:href="#ArialMT-49"/>
      </g>
     </g>
    </g>
    <g id="ytick_10">
     <g id="line2d_25">
      <path clip-path="url(#p56c45087ff)" d="M 459.132528 203.448685 
L 814.223437 203.448685 
" style="fill:none;stroke:#ffffff;stroke-linecap:round;stroke-width:0.8;"/>
     </g>
     <g id="text_31">
      <!-- 2 -->
      <g style="fill:#262626;" transform="translate(446.571591 207.027592)scale(0.1 -0.1)">
       <use xlink:href="#ArialMT-50"/>
      </g>
     </g>
    </g>
    <g id="ytick_11">
     <g id="line2d_26">
      <path clip-path="url(#p56c45087ff)" d="M 459.132528 131.121466 
L 814.223437 131.121466 
" style="fill:none;stroke:#ffffff;stroke-linecap:round;stroke-width:0.8;"/>
     </g>
     <g id="text_32">
      <!-- 3 -->
      <g style="fill:#262626;" transform="translate(446.571591 134.700372)scale(0.1 -0.1)">
       <use xlink:href="#ArialMT-51"/>
      </g>
     </g>
    </g>
    <g id="ytick_12">
     <g id="line2d_27">
      <path clip-path="url(#p56c45087ff)" d="M 459.132528 58.794246 
L 814.223437 58.794246 
" style="fill:none;stroke:#ffffff;stroke-linecap:round;stroke-width:0.8;"/>
     </g>
     <g id="text_33">
      <!-- 4 -->
      <g style="fill:#262626;" transform="translate(446.571591 62.373152)scale(0.1 -0.1)">
       <use xlink:href="#ArialMT-52"/>
      </g>
     </g>
    </g>
    <g id="text_34">
     <!-- Density -->
     <g style="fill:#262626;" transform="translate(440.466903 201.695)rotate(-90)scale(0.1 -0.1)">
      <use xlink:href="#ArialMT-68"/>
      <use x="72.216797" xlink:href="#ArialMT-101"/>
      <use x="127.832031" xlink:href="#ArialMT-110"/>
      <use x="183.447266" xlink:href="#ArialMT-115"/>
      <use x="233.447266" xlink:href="#ArialMT-105"/>
      <use x="255.664062" xlink:href="#ArialMT-116"/>
      <use x="283.447266" xlink:href="#ArialMT-121"/>
     </g>
    </g>
    <g id="text_35">
     <!-- 1e−7 -->
     <g style="fill:#262626;" transform="translate(459.132528 18.943125)scale(0.1 -0.1)">
      <use xlink:href="#ArialMT-49"/>
      <use x="55.615234" xlink:href="#ArialMT-101"/>
      <use x="111.230469" xlink:href="#ArialMT-8722"/>
      <use x="169.628906" xlink:href="#ArialMT-55"/>
     </g>
    </g>
   </g>
   <g id="patch_58">
    <path clip-path="url(#p56c45087ff)" d="M 488.644197 348.103125 
L 494.565548 348.103125 
L 494.565548 37.474554 
L 488.644197 37.474554 
z
" style="fill:#1f77b4;opacity:0.4;stroke:#ffffff;stroke-linejoin:miter;"/>
   </g>
   <g id="patch_59">
    <path clip-path="url(#p56c45087ff)" d="M 494.565548 348.103125 
L 500.486899 348.103125 
L 500.486899 242.657489 
L 494.565548 242.657489 
z
" style="fill:#1f77b4;opacity:0.4;stroke:#ffffff;stroke-linejoin:miter;"/>
   </g>
   <g id="patch_60">
    <path clip-path="url(#p56c45087ff)" d="M 500.486899 348.103125 
L 506.408251 348.103125 
L 506.408251 294.349636 
L 500.486899 294.349636 
z
" style="fill:#1f77b4;opacity:0.4;stroke:#ffffff;stroke-linejoin:miter;"/>
   </g>
   <g id="patch_61">
    <path clip-path="url(#p56c45087ff)" d="M 506.408251 348.103125 
L 512.329602 348.103125 
L 512.329602 318.92719 
L 506.408251 318.92719 
z
" style="fill:#1f77b4;opacity:0.4;stroke:#ffffff;stroke-linejoin:miter;"/>
   </g>
   <g id="patch_62">
    <path clip-path="url(#p56c45087ff)" d="M 512.329602 348.103125 
L 518.250954 348.103125 
L 518.250954 325.428349 
L 512.329602 325.428349 
z
" style="fill:#1f77b4;opacity:0.4;stroke:#ffffff;stroke-linejoin:miter;"/>
   </g>
   <g id="patch_63">
    <path clip-path="url(#p56c45087ff)" d="M 518.250954 348.103125 
L 524.172305 348.103125 
L 524.172305 328.441082 
L 518.250954 328.441082 
z
" style="fill:#1f77b4;opacity:0.4;stroke:#ffffff;stroke-linejoin:miter;"/>
   </g>
   <g id="patch_64">
    <path clip-path="url(#p56c45087ff)" d="M 524.172305 348.103125 
L 530.093657 348.103125 
L 530.093657 335.100806 
L 524.172305 335.100806 
z
" style="fill:#1f77b4;opacity:0.4;stroke:#ffffff;stroke-linejoin:miter;"/>
   </g>
   <g id="patch_65">
    <path clip-path="url(#p56c45087ff)" d="M 530.093657 348.103125 
L 536.015008 348.103125 
L 536.015008 337.320714 
L 530.093657 337.320714 
z
" style="fill:#1f77b4;opacity:0.4;stroke:#ffffff;stroke-linejoin:miter;"/>
   </g>
   <g id="patch_66">
    <path clip-path="url(#p56c45087ff)" d="M 536.015008 348.103125 
L 541.93636 348.103125 
L 541.93636 322.257052 
L 536.015008 322.257052 
z
" style="fill:#1f77b4;opacity:0.4;stroke:#ffffff;stroke-linejoin:miter;"/>
   </g>
   <g id="patch_67">
    <path clip-path="url(#p56c45087ff)" d="M 541.93636 348.103125 
L 547.857711 348.103125 
L 547.857711 345.248957 
L 541.93636 345.248957 
z
" style="fill:#1f77b4;opacity:0.4;stroke:#ffffff;stroke-linejoin:miter;"/>
   </g>
   <g id="patch_68">
    <path clip-path="url(#p56c45087ff)" d="M 547.857711 348.103125 
L 553.779063 348.103125 
L 553.779063 345.407522 
L 547.857711 345.407522 
z
" style="fill:#1f77b4;opacity:0.4;stroke:#ffffff;stroke-linejoin:miter;"/>
   </g>
   <g id="patch_69">
    <path clip-path="url(#p56c45087ff)" d="M 553.779063 348.103125 
L 559.700414 348.103125 
L 559.700414 346.834606 
L 553.779063 346.834606 
z
" style="fill:#1f77b4;opacity:0.4;stroke:#ffffff;stroke-linejoin:miter;"/>
   </g>
   <g id="patch_70">
    <path clip-path="url(#p56c45087ff)" d="M 559.700414 348.103125 
L 565.621765 348.103125 
L 565.621765 346.200347 
L 559.700414 346.200347 
z
" style="fill:#1f77b4;opacity:0.4;stroke:#ffffff;stroke-linejoin:miter;"/>
   </g>
   <g id="patch_71">
    <path clip-path="url(#p56c45087ff)" d="M 565.621765 348.103125 
L 571.543117 348.103125 
L 571.543117 346.993171 
L 565.621765 346.993171 
z
" style="fill:#1f77b4;opacity:0.4;stroke:#ffffff;stroke-linejoin:miter;"/>
   </g>
   <g id="patch_72">
    <path clip-path="url(#p56c45087ff)" d="M 571.543117 348.103125 
L 577.464468 348.103125 
L 577.464468 346.834606 
L 571.543117 346.834606 
z
" style="fill:#1f77b4;opacity:0.4;stroke:#ffffff;stroke-linejoin:miter;"/>
   </g>
   <g id="patch_73">
    <path clip-path="url(#p56c45087ff)" d="M 577.464468 348.103125 
L 583.38582 348.103125 
L 583.38582 346.676041 
L 577.464468 346.676041 
z
" style="fill:#1f77b4;opacity:0.4;stroke:#ffffff;stroke-linejoin:miter;"/>
   </g>
   <g id="patch_74">
    <path clip-path="url(#p56c45087ff)" d="M 583.38582 348.103125 
L 589.307171 348.103125 
L 589.307171 346.834606 
L 583.38582 346.834606 
z
" style="fill:#1f77b4;opacity:0.4;stroke:#ffffff;stroke-linejoin:miter;"/>
   </g>
   <g id="patch_75">
    <path clip-path="url(#p56c45087ff)" d="M 589.307171 348.103125 
L 595.228523 348.103125 
L 595.228523 347.94456 
L 589.307171 347.94456 
z
" style="fill:#1f77b4;opacity:0.4;stroke:#ffffff;stroke-linejoin:miter;"/>
   </g>
   <g id="patch_76">
    <path clip-path="url(#p56c45087ff)" d="M 595.228523 348.103125 
L 601.149874 348.103125 
L 601.149874 347.62743 
L 595.228523 347.62743 
z
" style="fill:#1f77b4;opacity:0.4;stroke:#ffffff;stroke-linejoin:miter;"/>
   </g>
   <g id="patch_77">
    <path clip-path="url(#p56c45087ff)" d="M 601.149874 348.103125 
L 607.071226 348.103125 
L 607.071226 347.310301 
L 601.149874 347.310301 
z
" style="fill:#1f77b4;opacity:0.4;stroke:#ffffff;stroke-linejoin:miter;"/>
   </g>
   <g id="patch_78">
    <path clip-path="url(#p56c45087ff)" d="M 607.071226 348.103125 
L 612.992577 348.103125 
L 612.992577 347.62743 
L 607.071226 347.62743 
z
" style="fill:#1f77b4;opacity:0.4;stroke:#ffffff;stroke-linejoin:miter;"/>
   </g>
   <g id="patch_79">
    <path clip-path="url(#p56c45087ff)" d="M 612.992577 348.103125 
L 618.913929 348.103125 
L 618.913929 347.310301 
L 612.992577 347.310301 
z
" style="fill:#1f77b4;opacity:0.4;stroke:#ffffff;stroke-linejoin:miter;"/>
   </g>
   <g id="patch_80">
    <path clip-path="url(#p56c45087ff)" d="M 618.913929 348.103125 
L 624.83528 348.103125 
L 624.83528 347.62743 
L 618.913929 347.62743 
z
" style="fill:#1f77b4;opacity:0.4;stroke:#ffffff;stroke-linejoin:miter;"/>
   </g>
   <g id="patch_81">
    <path clip-path="url(#p56c45087ff)" d="M 624.83528 348.103125 
L 630.756631 348.103125 
L 630.756631 348.103125 
L 624.83528 348.103125 
z
" style="fill:#1f77b4;opacity:0.4;stroke:#ffffff;stroke-linejoin:miter;"/>
   </g>
   <g id="patch_82">
    <path clip-path="url(#p56c45087ff)" d="M 630.756631 348.103125 
L 636.677983 348.103125 
L 636.677983 347.785995 
L 630.756631 347.785995 
z
" style="fill:#1f77b4;opacity:0.4;stroke:#ffffff;stroke-linejoin:miter;"/>
   </g>
   <g id="patch_83">
    <path clip-path="url(#p56c45087ff)" d="M 636.677983 348.103125 
L 642.599334 348.103125 
L 642.599334 347.62743 
L 636.677983 347.62743 
z
" style="fill:#1f77b4;opacity:0.4;stroke:#ffffff;stroke-linejoin:miter;"/>
   </g>
   <g id="patch_84">
    <path clip-path="url(#p56c45087ff)" d="M 642.599334 348.103125 
L 648.520686 348.103125 
L 648.520686 347.94456 
L 642.599334 347.94456 
z
" style="fill:#1f77b4;opacity:0.4;stroke:#ffffff;stroke-linejoin:miter;"/>
   </g>
   <g id="patch_85">
    <path clip-path="url(#p56c45087ff)" d="M 648.520686 348.103125 
L 654.442037 348.103125 
L 654.442037 347.468866 
L 648.520686 347.468866 
z
" style="fill:#1f77b4;opacity:0.4;stroke:#ffffff;stroke-linejoin:miter;"/>
   </g>
   <g id="patch_86">
    <path clip-path="url(#p56c45087ff)" d="M 654.442037 348.103125 
L 660.363389 348.103125 
L 660.363389 348.103125 
L 654.442037 348.103125 
z
" style="fill:#1f77b4;opacity:0.4;stroke:#ffffff;stroke-linejoin:miter;"/>
   </g>
   <g id="patch_87">
    <path clip-path="url(#p56c45087ff)" d="M 660.363389 348.103125 
L 666.28474 348.103125 
L 666.28474 347.62743 
L 660.363389 347.62743 
z
" style="fill:#1f77b4;opacity:0.4;stroke:#ffffff;stroke-linejoin:miter;"/>
   </g>
   <g id="patch_88">
    <path clip-path="url(#p56c45087ff)" d="M 666.28474 348.103125 
L 672.206092 348.103125 
L 672.206092 348.103125 
L 666.28474 348.103125 
z
" style="fill:#1f77b4;opacity:0.4;stroke:#ffffff;stroke-linejoin:miter;"/>
   </g>
   <g id="patch_89">
    <path clip-path="url(#p56c45087ff)" d="M 672.206092 348.103125 
L 678.127443 348.103125 
L 678.127443 347.62743 
L 672.206092 347.62743 
z
" style="fill:#1f77b4;opacity:0.4;stroke:#ffffff;stroke-linejoin:miter;"/>
   </g>
   <g id="patch_90">
    <path clip-path="url(#p56c45087ff)" d="M 678.127443 348.103125 
L 684.048795 348.103125 
L 684.048795 348.103125 
L 678.127443 348.103125 
z
" style="fill:#1f77b4;opacity:0.4;stroke:#ffffff;stroke-linejoin:miter;"/>
   </g>
   <g id="patch_91">
    <path clip-path="url(#p56c45087ff)" d="M 684.048795 348.103125 
L 689.970146 348.103125 
L 689.970146 347.785995 
L 684.048795 347.785995 
z
" style="fill:#1f77b4;opacity:0.4;stroke:#ffffff;stroke-linejoin:miter;"/>
   </g>
   <g id="patch_92">
    <path clip-path="url(#p56c45087ff)" d="M 689.970146 348.103125 
L 695.891498 348.103125 
L 695.891498 348.103125 
L 689.970146 348.103125 
z
" style="fill:#1f77b4;opacity:0.4;stroke:#ffffff;stroke-linejoin:miter;"/>
   </g>
   <g id="patch_93">
    <path clip-path="url(#p56c45087ff)" d="M 695.891498 348.103125 
L 701.812849 348.103125 
L 701.812849 347.94456 
L 695.891498 347.94456 
z
" style="fill:#1f77b4;opacity:0.4;stroke:#ffffff;stroke-linejoin:miter;"/>
   </g>
   <g id="patch_94">
    <path clip-path="url(#p56c45087ff)" d="M 701.812849 348.103125 
L 707.7342 348.103125 
L 707.7342 348.103125 
L 701.812849 348.103125 
z
" style="fill:#1f77b4;opacity:0.4;stroke:#ffffff;stroke-linejoin:miter;"/>
   </g>
   <g id="patch_95">
    <path clip-path="url(#p56c45087ff)" d="M 707.7342 348.103125 
L 713.655552 348.103125 
L 713.655552 347.94456 
L 707.7342 347.94456 
z
" style="fill:#1f77b4;opacity:0.4;stroke:#ffffff;stroke-linejoin:miter;"/>
   </g>
   <g id="patch_96">
    <path clip-path="url(#p56c45087ff)" d="M 713.655552 348.103125 
L 719.576903 348.103125 
L 719.576903 347.94456 
L 713.655552 347.94456 
z
" style="fill:#1f77b4;opacity:0.4;stroke:#ffffff;stroke-linejoin:miter;"/>
   </g>
   <g id="patch_97">
    <path clip-path="url(#p56c45087ff)" d="M 719.576903 348.103125 
L 725.498255 348.103125 
L 725.498255 347.94456 
L 719.576903 347.94456 
z
" style="fill:#1f77b4;opacity:0.4;stroke:#ffffff;stroke-linejoin:miter;"/>
   </g>
   <g id="patch_98">
    <path clip-path="url(#p56c45087ff)" d="M 725.498255 348.103125 
L 731.419606 348.103125 
L 731.419606 348.103125 
L 725.498255 348.103125 
z
" style="fill:#1f77b4;opacity:0.4;stroke:#ffffff;stroke-linejoin:miter;"/>
   </g>
   <g id="patch_99">
    <path clip-path="url(#p56c45087ff)" d="M 731.419606 348.103125 
L 737.340958 348.103125 
L 737.340958 347.94456 
L 731.419606 347.94456 
z
" style="fill:#1f77b4;opacity:0.4;stroke:#ffffff;stroke-linejoin:miter;"/>
   </g>
   <g id="patch_100">
    <path clip-path="url(#p56c45087ff)" d="M 737.340958 348.103125 
L 743.262309 348.103125 
L 743.262309 347.94456 
L 737.340958 347.94456 
z
" style="fill:#1f77b4;opacity:0.4;stroke:#ffffff;stroke-linejoin:miter;"/>
   </g>
   <g id="patch_101">
    <path clip-path="url(#p56c45087ff)" d="M 743.262309 348.103125 
L 749.183661 348.103125 
L 749.183661 348.103125 
L 743.262309 348.103125 
z
" style="fill:#1f77b4;opacity:0.4;stroke:#ffffff;stroke-linejoin:miter;"/>
   </g>
   <g id="patch_102">
    <path clip-path="url(#p56c45087ff)" d="M 749.183661 348.103125 
L 755.105012 348.103125 
L 755.105012 348.103125 
L 749.183661 348.103125 
z
" style="fill:#1f77b4;opacity:0.4;stroke:#ffffff;stroke-linejoin:miter;"/>
   </g>
   <g id="patch_103">
    <path clip-path="url(#p56c45087ff)" d="M 755.105012 348.103125 
L 761.026364 348.103125 
L 761.026364 348.103125 
L 755.105012 348.103125 
z
" style="fill:#1f77b4;opacity:0.4;stroke:#ffffff;stroke-linejoin:miter;"/>
   </g>
   <g id="patch_104">
    <path clip-path="url(#p56c45087ff)" d="M 761.026364 348.103125 
L 766.947715 348.103125 
L 766.947715 348.103125 
L 761.026364 348.103125 
z
" style="fill:#1f77b4;opacity:0.4;stroke:#ffffff;stroke-linejoin:miter;"/>
   </g>
   <g id="patch_105">
    <path clip-path="url(#p56c45087ff)" d="M 766.947715 348.103125 
L 772.869066 348.103125 
L 772.869066 348.103125 
L 766.947715 348.103125 
z
" style="fill:#1f77b4;opacity:0.4;stroke:#ffffff;stroke-linejoin:miter;"/>
   </g>
   <g id="patch_106">
    <path clip-path="url(#p56c45087ff)" d="M 772.869066 348.103125 
L 778.790418 348.103125 
L 778.790418 347.94456 
L 772.869066 347.94456 
z
" style="fill:#1f77b4;opacity:0.4;stroke:#ffffff;stroke-linejoin:miter;"/>
   </g>
   <g id="patch_107">
    <path clip-path="url(#p56c45087ff)" d="M 778.790418 348.103125 
L 784.711769 348.103125 
L 784.711769 347.94456 
L 778.790418 347.94456 
z
" style="fill:#1f77b4;opacity:0.4;stroke:#ffffff;stroke-linejoin:miter;"/>
   </g>
   <g id="line2d_28">
    <path clip-path="url(#p56c45087ff)" d="M 475.273024 347.508876 
L 476.895185 346.301175 
L 478.517345 343.282234 
L 480.139505 336.709393 
L 481.761666 324.277484 
L 483.383826 303.931919 
L 485.005987 275.311102 
L 488.250307 207.19592 
L 489.872468 180.842097 
L 491.494628 167.726749 
L 493.116789 169.552579 
L 494.738949 183.742329 
L 496.361109 205.181025 
L 497.98327 228.632688 
L 499.60543 250.398244 
L 501.22759 268.710367 
L 502.849751 283.257197 
L 504.471911 294.479656 
L 506.094072 303.043356 
L 507.716232 309.569657 
L 509.338392 314.550114 
L 510.960553 318.350628 
L 512.582713 321.245937 
L 514.204874 323.455255 
L 515.827034 325.165351 
L 517.449194 326.537928 
L 520.693515 328.778785 
L 523.937836 330.792798 
L 525.559996 331.607726 
L 527.182157 332.043553 
L 528.804317 331.883989 
L 530.426477 331.075338 
L 532.048638 329.880942 
L 533.670798 328.891055 
L 535.292959 328.807881 
L 536.915119 330.084388 
L 538.537279 332.648322 
L 541.7816 339.138394 
L 543.403761 341.708849 
L 545.025921 343.428889 
L 546.648081 344.424533 
L 548.270242 344.968366 
L 551.514563 345.596948 
L 556.381044 346.355725 
L 559.625364 346.570895 
L 572.602648 346.86069 
L 577.469129 346.890202 
L 583.95777 346.858802 
L 587.202091 347.118845 
L 592.068572 347.565269 
L 595.312893 347.65621 
L 601.801535 347.495547 
L 609.912337 347.396943 
L 614.778818 347.476593 
L 622.88962 347.774312 
L 632.622582 347.797947 
L 639.111224 347.717818 
L 648.844186 347.812112 
L 656.954988 347.773176 
L 695.886837 348.015267 
L 742.929488 348.035075 
L 752.662451 348.102487 
L 798.082942 348.102191 
L 798.082942 348.102191 
" style="fill:none;stroke:#1f77b4;stroke-linecap:round;stroke-width:1.5;"/>
   </g>
   <g id="patch_108">
    <path d="M 459.132528 348.103125 
L 459.132528 21.943125 
" style="fill:none;stroke:#ffffff;stroke-linecap:square;stroke-linejoin:miter;stroke-width:0.8;"/>
   </g>
   <g id="patch_109">
    <path d="M 814.223437 348.103125 
L 814.223437 21.943125 
" style="fill:none;stroke:#ffffff;stroke-linecap:square;stroke-linejoin:miter;stroke-width:0.8;"/>
   </g>
   <g id="patch_110">
    <path d="M 459.132528 348.103125 
L 814.223438 348.103125 
" style="fill:none;stroke:#ffffff;stroke-linecap:square;stroke-linejoin:miter;stroke-width:0.8;"/>
   </g>
   <g id="patch_111">
    <path d="M 459.132528 21.943125 
L 814.223438 21.943125 
" style="fill:none;stroke:#ffffff;stroke-linecap:square;stroke-linejoin:miter;stroke-width:0.8;"/>
   </g>
   <g id="text_36">
    <!-- Fraudulent Old Balance Origin greater than 1 milion -->
    <g style="fill:#262626;" transform="translate(499.613608 15.943125)scale(0.12 -0.12)">
     <defs>
      <path d="M 6.59375 0 
L 6.59375 71.578125 
L 15.375 71.578125 
L 15.375 45.90625 
Q 21.53125 53.03125 30.90625 53.03125 
Q 36.671875 53.03125 40.921875 50.75 
Q 45.171875 48.484375 47 44.484375 
Q 48.828125 40.484375 48.828125 32.859375 
L 48.828125 0 
L 40.046875 0 
L 40.046875 32.859375 
Q 40.046875 39.453125 37.1875 42.453125 
Q 34.328125 45.453125 29.109375 45.453125 
Q 25.203125 45.453125 21.75 43.421875 
Q 18.3125 41.40625 16.84375 37.9375 
Q 15.375 34.46875 15.375 28.375 
L 15.375 0 
z
" id="ArialMT-104"/>
      <path d="M 6.59375 0 
L 6.59375 51.859375 
L 14.453125 51.859375 
L 14.453125 44.578125 
Q 16.890625 48.390625 20.9375 50.703125 
Q 25 53.03125 30.171875 53.03125 
Q 35.9375 53.03125 39.625 50.640625 
Q 43.3125 48.25 44.828125 43.953125 
Q 50.984375 53.03125 60.84375 53.03125 
Q 68.5625 53.03125 72.703125 48.75 
Q 76.859375 44.484375 76.859375 35.59375 
L 76.859375 0 
L 68.109375 0 
L 68.109375 32.671875 
Q 68.109375 37.9375 67.25 40.25 
Q 66.40625 42.578125 64.15625 43.984375 
Q 61.921875 45.40625 58.890625 45.40625 
Q 53.421875 45.40625 49.796875 41.765625 
Q 46.1875 38.140625 46.1875 30.125 
L 46.1875 0 
L 37.40625 0 
L 37.40625 33.6875 
Q 37.40625 39.546875 35.25 42.46875 
Q 33.109375 45.40625 28.21875 45.40625 
Q 24.515625 45.40625 21.359375 43.453125 
Q 18.21875 41.5 16.796875 37.734375 
Q 15.375 33.984375 15.375 26.90625 
L 15.375 0 
z
" id="ArialMT-109"/>
     </defs>
     <use xlink:href="#ArialMT-70"/>
     <use x="61.083984" xlink:href="#ArialMT-114"/>
     <use x="94.384766" xlink:href="#ArialMT-97"/>
     <use x="150" xlink:href="#ArialMT-117"/>
     <use x="205.615234" xlink:href="#ArialMT-100"/>
     <use x="261.230469" xlink:href="#ArialMT-117"/>
     <use x="316.845703" xlink:href="#ArialMT-108"/>
     <use x="339.0625" xlink:href="#ArialMT-101"/>
     <use x="394.677734" xlink:href="#ArialMT-110"/>
     <use x="450.292969" xlink:href="#ArialMT-116"/>
     <use x="478.076172" xlink:href="#ArialMT-32"/>
     <use x="505.859375" xlink:href="#ArialMT-79"/>
     <use x="583.642578" xlink:href="#ArialMT-108"/>
     <use x="605.859375" xlink:href="#ArialMT-100"/>
     <use x="661.474609" xlink:href="#ArialMT-32"/>
     <use x="689.257812" xlink:href="#ArialMT-66"/>
     <use x="755.957031" xlink:href="#ArialMT-97"/>
     <use x="811.572266" xlink:href="#ArialMT-108"/>
     <use x="833.789062" xlink:href="#ArialMT-97"/>
     <use x="889.404297" xlink:href="#ArialMT-110"/>
     <use x="945.019531" xlink:href="#ArialMT-99"/>
     <use x="995.019531" xlink:href="#ArialMT-101"/>
     <use x="1050.634766" xlink:href="#ArialMT-32"/>
     <use x="1078.417969" xlink:href="#ArialMT-79"/>
     <use x="1156.201172" xlink:href="#ArialMT-114"/>
     <use x="1189.501953" xlink:href="#ArialMT-105"/>
     <use x="1211.71875" xlink:href="#ArialMT-103"/>
     <use x="1267.333984" xlink:href="#ArialMT-105"/>
     <use x="1289.550781" xlink:href="#ArialMT-110"/>
     <use x="1345.166016" xlink:href="#ArialMT-32"/>
     <use x="1372.949219" xlink:href="#ArialMT-103"/>
     <use x="1428.564453" xlink:href="#ArialMT-114"/>
     <use x="1461.865234" xlink:href="#ArialMT-101"/>
     <use x="1517.480469" xlink:href="#ArialMT-97"/>
     <use x="1573.095703" xlink:href="#ArialMT-116"/>
     <use x="1600.878906" xlink:href="#ArialMT-101"/>
     <use x="1656.494141" xlink:href="#ArialMT-114"/>
     <use x="1689.794922" xlink:href="#ArialMT-32"/>
     <use x="1717.578125" xlink:href="#ArialMT-116"/>
     <use x="1745.361328" xlink:href="#ArialMT-104"/>
     <use x="1800.976562" xlink:href="#ArialMT-97"/>
     <use x="1856.591797" xlink:href="#ArialMT-110"/>
     <use x="1912.207031" xlink:href="#ArialMT-32"/>
     <use x="1939.990234" xlink:href="#ArialMT-49"/>
     <use x="1995.605469" xlink:href="#ArialMT-32"/>
     <use x="2023.388672" xlink:href="#ArialMT-109"/>
     <use x="2106.689453" xlink:href="#ArialMT-105"/>
     <use x="2128.90625" xlink:href="#ArialMT-108"/>
     <use x="2151.123047" xlink:href="#ArialMT-105"/>
     <use x="2173.339844" xlink:href="#ArialMT-111"/>
     <use x="2228.955078" xlink:href="#ArialMT-110"/>
    </g>
   </g>
  </g>
 </g>
 <defs>
  <clipPath id="p8a598b96d5">
   <rect height="326.16" width="355.090909" x="33.023438" y="21.943125"/>
  </clipPath>
  <clipPath id="p56c45087ff">
   <rect height="326.16" width="355.090909" x="459.132528" y="21.943125"/>
  </clipPath>
 </defs>
</svg>
